<?xml version="1.0" encoding="utf-8" standalone="no"?>
<!DOCTYPE svg PUBLIC "-//W3C//DTD SVG 1.1//EN"
  "http://www.w3.org/Graphics/SVG/1.1/DTD/svg11.dtd">
<!-- Created with matplotlib (https://matplotlib.org/) -->
<svg height="293pt" version="1.1" viewBox="0 0 422 293" width="422pt" xmlns="http://www.w3.org/2000/svg" xmlns:xlink="http://www.w3.org/1999/xlink">
 <defs>
  <style type="text/css">
*{stroke-linecap:butt;stroke-linejoin:round;}
  </style>
 </defs>
 <g id="figure_1">
  <g id="patch_1">
   <path d="M 0 293 
L 422 293 
L 422 0 
L 0 0 
z
" style="fill:#ffffff;"/>
  </g>
  <g id="axes_1">
   <g id="patch_2">
    <path d="M 75.3 282.2 
L 346.7 282.2 
L 346.7 10.8 
L 75.3 10.8 
z
" style="fill:#ffffff;"/>
   </g>
   <g id="patch_3">
    <path clip-path="url(#p783949af79)" d="M 242.315385 275.241026 
Q 256.233333 247.405128 270.151282 275.241026 
" style="fill:none;opacity:0.2;stroke:#000000;stroke-linejoin:miter;"/>
   </g>
   <g id="patch_4">
    <path clip-path="url(#p783949af79)" d="M 242.315385 275.241026 
Q 249.274359 261.323077 256.233333 275.241026 
" style="fill:none;opacity:0.2;stroke:#000000;stroke-linejoin:miter;"/>
   </g>
   <g id="patch_5">
    <path clip-path="url(#p783949af79)" d="M 242.315385 275.241026 
Q 277.110256 205.651282 311.905128 275.241026 
" style="fill:none;opacity:0.2;stroke:#000000;stroke-linejoin:miter;"/>
   </g>
   <g id="patch_6">
    <path clip-path="url(#p783949af79)" d="M 242.315385 275.241026 
Q 284.069231 191.733333 325.823077 275.241026 
" style="fill:none;opacity:0.2;stroke:#000000;stroke-linejoin:miter;"/>
   </g>
   <g id="patch_7">
    <path clip-path="url(#p783949af79)" d="M 242.315385 275.241026 
Q 259.712821 240.446154 277.110256 275.241026 
" style="fill:none;opacity:0.2;stroke:#000000;stroke-linejoin:miter;"/>
   </g>
   <g id="patch_8">
    <path clip-path="url(#p783949af79)" d="M 242.315385 275.241026 
Q 245.794872 268.282051 249.274359 275.241026 
" style="fill:none;opacity:0.2;stroke:#000000;stroke-linejoin:miter;"/>
   </g>
   <g id="patch_9">
    <path clip-path="url(#p783949af79)" d="M 242.315385 275.241026 
Q 280.589744 198.692308 318.864103 275.241026 
" style="fill:none;opacity:0.2;stroke:#000000;stroke-linejoin:miter;"/>
   </g>
   <g id="patch_10">
    <path clip-path="url(#p783949af79)" d="M 242.315385 275.241026 
Q 263.192308 233.487179 284.069231 275.241026 
" style="fill:none;opacity:0.2;stroke:#000000;stroke-linejoin:miter;"/>
   </g>
   <g id="patch_11">
    <path clip-path="url(#p783949af79)" d="M 242.315385 275.241026 
Q 270.151282 219.569231 297.987179 275.241026 
" style="fill:none;opacity:0.2;stroke:#000000;stroke-linejoin:miter;"/>
   </g>
   <g id="patch_12">
    <path clip-path="url(#p783949af79)" d="M 242.315385 275.241026 
Q 273.630769 212.610256 304.946154 275.241026 
" style="fill:none;opacity:0.2;stroke:#000000;stroke-linejoin:miter;"/>
   </g>
   <g id="patch_13">
    <path clip-path="url(#p783949af79)" d="M 242.315385 275.241026 
Q 266.671795 226.528205 291.028205 275.241026 
" style="fill:none;opacity:0.2;stroke:#000000;stroke-linejoin:miter;"/>
   </g>
   <g id="patch_14">
    <path clip-path="url(#p783949af79)" d="M 242.315385 275.241026 
Q 252.753846 254.364103 263.192308 275.241026 
" style="fill:none;opacity:0.2;stroke:#000000;stroke-linejoin:miter;"/>
   </g>
   <g id="patch_15">
    <path clip-path="url(#p783949af79)" d="M 242.315385 275.241026 
Q 287.548718 184.774359 332.782051 275.241026 
" style="fill:none;opacity:0.2;stroke:#000000;stroke-linejoin:miter;"/>
   </g>
   <g id="patch_16">
    <path clip-path="url(#p783949af79)" d="M 325.823077 275.241026 
Q 297.987179 219.569231 270.151282 275.241026 
" style="fill:none;opacity:0.2;stroke:#000000;stroke-linejoin:miter;"/>
   </g>
   <g id="patch_17">
    <path clip-path="url(#p783949af79)" d="M 325.823077 275.241026 
Q 291.028205 205.651282 256.233333 275.241026 
" style="fill:none;opacity:0.2;stroke:#000000;stroke-linejoin:miter;"/>
   </g>
   <g id="patch_18">
    <path clip-path="url(#p783949af79)" d="M 325.823077 275.241026 
Q 318.864103 261.323077 311.905128 275.241026 
" style="fill:none;opacity:0.2;stroke:#000000;stroke-linejoin:miter;"/>
   </g>
   <g id="patch_19">
    <path clip-path="url(#p783949af79)" d="M 325.823077 275.241026 
Q 308.425641 240.446154 291.028205 275.241026 
" style="fill:none;opacity:0.2;stroke:#000000;stroke-linejoin:miter;"/>
   </g>
   <g id="patch_20">
    <path clip-path="url(#p783949af79)" d="M 325.823077 275.241026 
Q 301.466667 226.528205 277.110256 275.241026 
" style="fill:none;opacity:0.2;stroke:#000000;stroke-linejoin:miter;"/>
   </g>
   <g id="patch_21">
    <path clip-path="url(#p783949af79)" d="M 325.823077 275.241026 
Q 329.302564 268.282051 332.782051 275.241026 
" style="fill:none;opacity:0.2;stroke:#000000;stroke-linejoin:miter;"/>
   </g>
   <g id="patch_22">
    <path clip-path="url(#p783949af79)" d="M 325.823077 275.241026 
Q 294.507692 212.610256 263.192308 275.241026 
" style="fill:none;opacity:0.2;stroke:#000000;stroke-linejoin:miter;"/>
   </g>
   <g id="patch_23">
    <path clip-path="url(#p783949af79)" d="M 325.823077 275.241026 
Q 311.905128 247.405128 297.987179 275.241026 
" style="fill:none;opacity:0.2;stroke:#000000;stroke-linejoin:miter;"/>
   </g>
   <g id="patch_24">
    <path clip-path="url(#p783949af79)" d="M 325.823077 275.241026 
Q 287.548718 198.692308 249.274359 275.241026 
" style="fill:none;opacity:0.2;stroke:#000000;stroke-linejoin:miter;"/>
   </g>
   <g id="patch_25">
    <path clip-path="url(#p783949af79)" d="M 325.823077 275.241026 
Q 315.384615 254.364103 304.946154 275.241026 
" style="fill:none;opacity:0.2;stroke:#000000;stroke-linejoin:miter;"/>
   </g>
   <g id="patch_26">
    <path clip-path="url(#p783949af79)" d="M 325.823077 275.241026 
Q 322.34359 268.282051 318.864103 275.241026 
" style="fill:none;opacity:0.2;stroke:#000000;stroke-linejoin:miter;"/>
   </g>
   <g id="patch_27">
    <path clip-path="url(#p783949af79)" d="M 325.823077 275.241026 
Q 304.946154 233.487179 284.069231 275.241026 
" style="fill:none;opacity:0.2;stroke:#000000;stroke-linejoin:miter;"/>
   </g>
   <g id="patch_28">
    <path clip-path="url(#p783949af79)" d="M 325.823077 275.241026 
Q 280.589744 184.774359 235.35641 275.241026 
" style="fill:none;opacity:0.2;stroke:#000000;stroke-linejoin:miter;"/>
   </g>
   <g id="patch_29">
    <path clip-path="url(#p783949af79)" d="M 325.823077 275.241026 
Q 204.041026 31.676923 82.258974 275.241026 
" style="fill:none;opacity:0.2;stroke:#000000;stroke-linejoin:miter;"/>
   </g>
   <g id="patch_30">
    <path clip-path="url(#p783949af79)" d="M 249.274359 275.241026 
Q 259.712821 254.364103 270.151282 275.241026 
" style="fill:none;opacity:0.2;stroke:#000000;stroke-linejoin:miter;"/>
   </g>
   <g id="patch_31">
    <path clip-path="url(#p783949af79)" d="M 249.274359 275.241026 
Q 252.753846 268.282051 256.233333 275.241026 
" style="fill:none;opacity:0.2;stroke:#000000;stroke-linejoin:miter;"/>
   </g>
   <g id="patch_32">
    <path clip-path="url(#p783949af79)" d="M 249.274359 275.241026 
Q 280.589744 212.610256 311.905128 275.241026 
" style="fill:none;opacity:0.2;stroke:#000000;stroke-linejoin:miter;"/>
   </g>
   <g id="patch_33">
    <path clip-path="url(#p783949af79)" d="M 249.274359 275.241026 
Q 256.233333 261.323077 263.192308 275.241026 
" style="fill:none;opacity:0.2;stroke:#000000;stroke-linejoin:miter;"/>
   </g>
   <g id="patch_34">
    <path clip-path="url(#p783949af79)" d="M 249.274359 275.241026 
Q 291.028205 191.733333 332.782051 275.241026 
" style="fill:none;opacity:0.2;stroke:#000000;stroke-linejoin:miter;"/>
   </g>
   <g id="patch_35">
    <path clip-path="url(#p783949af79)" d="M 249.274359 275.241026 
Q 263.192308 247.405128 277.110256 275.241026 
" style="fill:none;opacity:0.2;stroke:#000000;stroke-linejoin:miter;"/>
   </g>
   <g id="patch_36">
    <path clip-path="url(#p783949af79)" d="M 249.274359 275.241026 
Q 277.110256 219.569231 304.946154 275.241026 
" style="fill:none;opacity:0.2;stroke:#000000;stroke-linejoin:miter;"/>
   </g>
   <g id="patch_37">
    <path clip-path="url(#p783949af79)" d="M 249.274359 275.241026 
Q 284.069231 205.651282 318.864103 275.241026 
" style="fill:none;opacity:0.2;stroke:#000000;stroke-linejoin:miter;"/>
   </g>
   <g id="patch_38">
    <path clip-path="url(#p783949af79)" d="M 249.274359 275.241026 
Q 270.151282 233.487179 291.028205 275.241026 
" style="fill:none;opacity:0.2;stroke:#000000;stroke-linejoin:miter;"/>
   </g>
   <g id="patch_39">
    <path clip-path="url(#p783949af79)" d="M 249.274359 275.241026 
Q 273.630769 226.528205 297.987179 275.241026 
" style="fill:none;opacity:0.2;stroke:#000000;stroke-linejoin:miter;"/>
   </g>
   <g id="patch_40">
    <path clip-path="url(#p783949af79)" d="M 249.274359 275.241026 
Q 266.671795 240.446154 284.069231 275.241026 
" style="fill:none;opacity:0.2;stroke:#000000;stroke-linejoin:miter;"/>
   </g>
   <g id="patch_41">
    <path clip-path="url(#p783949af79)" d="M 256.233333 275.241026 
Q 263.192308 261.323077 270.151282 275.241026 
" style="fill:none;opacity:0.2;stroke:#000000;stroke-linejoin:miter;"/>
   </g>
   <g id="patch_42">
    <path clip-path="url(#p783949af79)" d="M 256.233333 275.241026 
Q 273.630769 240.446154 291.028205 275.241026 
" style="fill:none;opacity:0.2;stroke:#000000;stroke-linejoin:miter;"/>
   </g>
   <g id="patch_43">
    <path clip-path="url(#p783949af79)" d="M 256.233333 275.241026 
Q 266.671795 254.364103 277.110256 275.241026 
" style="fill:none;opacity:0.2;stroke:#000000;stroke-linejoin:miter;"/>
   </g>
   <g id="patch_44">
    <path clip-path="url(#p783949af79)" d="M 256.233333 275.241026 
Q 259.712821 268.282051 263.192308 275.241026 
" style="fill:none;opacity:0.2;stroke:#000000;stroke-linejoin:miter;"/>
   </g>
   <g id="patch_45">
    <path clip-path="url(#p783949af79)" d="M 256.233333 275.241026 
Q 294.507692 198.692308 332.782051 275.241026 
" style="fill:none;opacity:0.2;stroke:#000000;stroke-linejoin:miter;"/>
   </g>
   <g id="patch_46">
    <path clip-path="url(#p783949af79)" d="M 256.233333 275.241026 
Q 284.069231 219.569231 311.905128 275.241026 
" style="fill:none;opacity:0.2;stroke:#000000;stroke-linejoin:miter;"/>
   </g>
   <g id="patch_47">
    <path clip-path="url(#p783949af79)" d="M 256.233333 275.241026 
Q 277.110256 233.487179 297.987179 275.241026 
" style="fill:none;opacity:0.2;stroke:#000000;stroke-linejoin:miter;"/>
   </g>
   <g id="patch_48">
    <path clip-path="url(#p783949af79)" d="M 256.233333 275.241026 
Q 280.589744 226.528205 304.946154 275.241026 
" style="fill:none;opacity:0.2;stroke:#000000;stroke-linejoin:miter;"/>
   </g>
   <g id="patch_49">
    <path clip-path="url(#p783949af79)" d="M 256.233333 275.241026 
Q 287.548718 212.610256 318.864103 275.241026 
" style="fill:none;opacity:0.2;stroke:#000000;stroke-linejoin:miter;"/>
   </g>
   <g id="patch_50">
    <path clip-path="url(#p783949af79)" d="M 256.233333 275.241026 
Q 270.151282 247.405128 284.069231 275.241026 
" style="fill:none;opacity:0.2;stroke:#000000;stroke-linejoin:miter;"/>
   </g>
   <g id="patch_51">
    <path clip-path="url(#p783949af79)" d="M 263.192308 275.241026 
Q 266.671795 268.282051 270.151282 275.241026 
" style="fill:none;opacity:0.2;stroke:#000000;stroke-linejoin:miter;"/>
   </g>
   <g id="patch_52">
    <path clip-path="url(#p783949af79)" d="M 263.192308 275.241026 
Q 287.548718 226.528205 311.905128 275.241026 
" style="fill:none;opacity:0.2;stroke:#000000;stroke-linejoin:miter;"/>
   </g>
   <g id="patch_53">
    <path clip-path="url(#p783949af79)" d="M 263.192308 275.241026 
Q 270.151282 261.323077 277.110256 275.241026 
" style="fill:none;opacity:0.2;stroke:#000000;stroke-linejoin:miter;"/>
   </g>
   <g id="patch_54">
    <path clip-path="url(#p783949af79)" d="M 263.192308 275.241026 
Q 297.987179 205.651282 332.782051 275.241026 
" style="fill:none;opacity:0.2;stroke:#000000;stroke-linejoin:miter;"/>
   </g>
   <g id="patch_55">
    <path clip-path="url(#p783949af79)" d="M 263.192308 275.241026 
Q 284.069231 233.487179 304.946154 275.241026 
" style="fill:none;opacity:0.2;stroke:#000000;stroke-linejoin:miter;"/>
   </g>
   <g id="patch_56">
    <path clip-path="url(#p783949af79)" d="M 263.192308 275.241026 
Q 291.028205 219.569231 318.864103 275.241026 
" style="fill:none;opacity:0.2;stroke:#000000;stroke-linejoin:miter;"/>
   </g>
   <g id="patch_57">
    <path clip-path="url(#p783949af79)" d="M 263.192308 275.241026 
Q 277.110256 247.405128 291.028205 275.241026 
" style="fill:none;opacity:0.2;stroke:#000000;stroke-linejoin:miter;"/>
   </g>
   <g id="patch_58">
    <path clip-path="url(#p783949af79)" d="M 263.192308 275.241026 
Q 280.589744 240.446154 297.987179 275.241026 
" style="fill:none;opacity:0.2;stroke:#000000;stroke-linejoin:miter;"/>
   </g>
   <g id="patch_59">
    <path clip-path="url(#p783949af79)" d="M 263.192308 275.241026 
Q 273.630769 254.364103 284.069231 275.241026 
" style="fill:none;opacity:0.2;stroke:#000000;stroke-linejoin:miter;"/>
   </g>
   <g id="patch_60">
    <path clip-path="url(#p783949af79)" d="M 270.151282 275.241026 
Q 280.589744 254.364103 291.028205 275.241026 
" style="fill:none;opacity:0.2;stroke:#000000;stroke-linejoin:miter;"/>
   </g>
   <g id="patch_61">
    <path clip-path="url(#p783949af79)" d="M 270.151282 275.241026 
Q 273.630769 268.282051 277.110256 275.241026 
" style="fill:none;opacity:0.2;stroke:#000000;stroke-linejoin:miter;"/>
   </g>
   <g id="patch_62">
    <path clip-path="url(#p783949af79)" d="M 270.151282 275.241026 
Q 301.466667 212.610256 332.782051 275.241026 
" style="fill:none;opacity:0.2;stroke:#000000;stroke-linejoin:miter;"/>
   </g>
   <g id="patch_63">
    <path clip-path="url(#p783949af79)" d="M 270.151282 275.241026 
Q 284.069231 247.405128 297.987179 275.241026 
" style="fill:none;opacity:0.2;stroke:#000000;stroke-linejoin:miter;"/>
   </g>
   <g id="patch_64">
    <path clip-path="url(#p783949af79)" d="M 270.151282 275.241026 
Q 291.028205 233.487179 311.905128 275.241026 
" style="fill:none;opacity:0.2;stroke:#000000;stroke-linejoin:miter;"/>
   </g>
   <g id="patch_65">
    <path clip-path="url(#p783949af79)" d="M 270.151282 275.241026 
Q 287.548718 240.446154 304.946154 275.241026 
" style="fill:none;opacity:0.2;stroke:#000000;stroke-linejoin:miter;"/>
   </g>
   <g id="patch_66">
    <path clip-path="url(#p783949af79)" d="M 270.151282 275.241026 
Q 294.507692 226.528205 318.864103 275.241026 
" style="fill:none;opacity:0.2;stroke:#000000;stroke-linejoin:miter;"/>
   </g>
   <g id="patch_67">
    <path clip-path="url(#p783949af79)" d="M 270.151282 275.241026 
Q 277.110256 261.323077 284.069231 275.241026 
" style="fill:none;opacity:0.2;stroke:#000000;stroke-linejoin:miter;"/>
   </g>
   <g id="patch_68">
    <path clip-path="url(#p783949af79)" d="M 318.864103 275.241026 
Q 315.384615 268.282051 311.905128 275.241026 
" style="fill:none;opacity:0.2;stroke:#000000;stroke-linejoin:miter;"/>
   </g>
   <g id="patch_69">
    <path clip-path="url(#p783949af79)" d="M 318.864103 275.241026 
Q 325.823077 261.323077 332.782051 275.241026 
" style="fill:none;opacity:0.2;stroke:#000000;stroke-linejoin:miter;"/>
   </g>
   <g id="patch_70">
    <path clip-path="url(#p783949af79)" d="M 318.864103 275.241026 
Q 304.946154 247.405128 291.028205 275.241026 
" style="fill:none;opacity:0.2;stroke:#000000;stroke-linejoin:miter;"/>
   </g>
   <g id="patch_71">
    <path clip-path="url(#p783949af79)" d="M 318.864103 275.241026 
Q 301.466667 240.446154 284.069231 275.241026 
" style="fill:none;opacity:0.2;stroke:#000000;stroke-linejoin:miter;"/>
   </g>
   <g id="patch_72">
    <path clip-path="url(#p783949af79)" d="M 318.864103 275.241026 
Q 297.987179 233.487179 277.110256 275.241026 
" style="fill:none;opacity:0.2;stroke:#000000;stroke-linejoin:miter;"/>
   </g>
   <g id="patch_73">
    <path clip-path="url(#p783949af79)" d="M 318.864103 275.241026 
Q 308.425641 254.364103 297.987179 275.241026 
" style="fill:none;opacity:0.2;stroke:#000000;stroke-linejoin:miter;"/>
   </g>
   <g id="patch_74">
    <path clip-path="url(#p783949af79)" d="M 318.864103 275.241026 
Q 311.905128 261.323077 304.946154 275.241026 
" style="fill:none;opacity:0.2;stroke:#000000;stroke-linejoin:miter;"/>
   </g>
   <g id="patch_75">
    <path clip-path="url(#p783949af79)" d="M 318.864103 275.241026 
Q 204.041026 45.594872 89.217949 275.241026 
" style="fill:none;opacity:0.2;stroke:#000000;stroke-linejoin:miter;"/>
   </g>
   <g id="patch_76">
    <path clip-path="url(#p783949af79)" d="M 332.782051 275.241026 
Q 322.34359 254.364103 311.905128 275.241026 
" style="fill:none;opacity:0.2;stroke:#000000;stroke-linejoin:miter;"/>
   </g>
   <g id="patch_77">
    <path clip-path="url(#p783949af79)" d="M 332.782051 275.241026 
Q 311.905128 233.487179 291.028205 275.241026 
" style="fill:none;opacity:0.2;stroke:#000000;stroke-linejoin:miter;"/>
   </g>
   <g id="patch_78">
    <path clip-path="url(#p783949af79)" d="M 332.782051 275.241026 
Q 304.946154 219.569231 277.110256 275.241026 
" style="fill:none;opacity:0.2;stroke:#000000;stroke-linejoin:miter;"/>
   </g>
   <g id="patch_79">
    <path clip-path="url(#p783949af79)" d="M 332.782051 275.241026 
Q 315.384615 240.446154 297.987179 275.241026 
" style="fill:none;opacity:0.2;stroke:#000000;stroke-linejoin:miter;"/>
   </g>
   <g id="patch_80">
    <path clip-path="url(#p783949af79)" d="M 332.782051 275.241026 
Q 318.864103 247.405128 304.946154 275.241026 
" style="fill:none;opacity:0.2;stroke:#000000;stroke-linejoin:miter;"/>
   </g>
   <g id="patch_81">
    <path clip-path="url(#p783949af79)" d="M 332.782051 275.241026 
Q 308.425641 226.528205 284.069231 275.241026 
" style="fill:none;opacity:0.2;stroke:#000000;stroke-linejoin:miter;"/>
   </g>
   <g id="patch_82">
    <path clip-path="url(#p783949af79)" d="M 332.782051 275.241026 
Q 214.479487 38.635897 96.176923 275.241026 
" style="fill:none;opacity:0.2;stroke:#000000;stroke-linejoin:miter;"/>
   </g>
   <g id="patch_83">
    <path clip-path="url(#p783949af79)" d="M 332.782051 275.241026 
Q 284.069231 177.815385 235.35641 275.241026 
" style="fill:none;opacity:0.2;stroke:#000000;stroke-linejoin:miter;"/>
   </g>
   <g id="patch_84">
    <path clip-path="url(#p783949af79)" d="M 332.782051 275.241026 
Q 217.958974 45.594872 103.135897 275.241026 
" style="fill:none;opacity:0.2;stroke:#000000;stroke-linejoin:miter;"/>
   </g>
   <g id="patch_85">
    <path clip-path="url(#p783949af79)" d="M 332.782051 275.241026 
Q 221.438462 52.553846 110.094872 275.241026 
" style="fill:none;opacity:0.2;stroke:#000000;stroke-linejoin:miter;"/>
   </g>
   <g id="patch_86">
    <path clip-path="url(#p783949af79)" d="M 332.782051 275.241026 
Q 224.917949 59.512821 117.053846 275.241026 
" style="fill:none;opacity:0.2;stroke:#000000;stroke-linejoin:miter;"/>
   </g>
   <g id="patch_87">
    <path clip-path="url(#p783949af79)" d="M 332.782051 275.241026 
Q 228.397436 66.471795 124.012821 275.241026 
" style="fill:none;opacity:0.2;stroke:#000000;stroke-linejoin:miter;"/>
   </g>
   <g id="patch_88">
    <path clip-path="url(#p783949af79)" d="M 332.782051 275.241026 
Q 231.876923 73.430769 130.971795 275.241026 
" style="fill:none;opacity:0.2;stroke:#000000;stroke-linejoin:miter;"/>
   </g>
   <g id="patch_89">
    <path clip-path="url(#p783949af79)" d="M 332.782051 275.241026 
Q 235.35641 80.389744 137.930769 275.241026 
" style="fill:none;opacity:0.2;stroke:#000000;stroke-linejoin:miter;"/>
   </g>
   <g id="patch_90">
    <path clip-path="url(#p783949af79)" d="M 332.782051 275.241026 
Q 238.835897 87.348718 144.889744 275.241026 
" style="fill:none;opacity:0.2;stroke:#000000;stroke-linejoin:miter;"/>
   </g>
   <g id="patch_91">
    <path clip-path="url(#p783949af79)" d="M 332.782051 275.241026 
Q 242.315385 94.307692 151.848718 275.241026 
" style="fill:none;opacity:0.2;stroke:#000000;stroke-linejoin:miter;"/>
   </g>
   <g id="patch_92">
    <path clip-path="url(#p783949af79)" d="M 332.782051 275.241026 
Q 245.794872 101.266667 158.807692 275.241026 
" style="fill:none;opacity:0.2;stroke:#000000;stroke-linejoin:miter;"/>
   </g>
   <g id="patch_93">
    <path clip-path="url(#p783949af79)" d="M 332.782051 275.241026 
Q 249.274359 108.225641 165.766667 275.241026 
" style="fill:none;opacity:0.2;stroke:#000000;stroke-linejoin:miter;"/>
   </g>
   <g id="patch_94">
    <path clip-path="url(#p783949af79)" d="M 332.782051 275.241026 
Q 252.753846 115.184615 172.725641 275.241026 
" style="fill:none;opacity:0.2;stroke:#000000;stroke-linejoin:miter;"/>
   </g>
   <g id="patch_95">
    <path clip-path="url(#p783949af79)" d="M 332.782051 275.241026 
Q 256.233333 122.14359 179.684615 275.241026 
" style="fill:none;opacity:0.2;stroke:#000000;stroke-linejoin:miter;"/>
   </g>
   <g id="patch_96">
    <path clip-path="url(#p783949af79)" d="M 332.782051 275.241026 
Q 259.712821 129.102564 186.64359 275.241026 
" style="fill:none;opacity:0.2;stroke:#000000;stroke-linejoin:miter;"/>
   </g>
   <g id="patch_97">
    <path clip-path="url(#p783949af79)" d="M 332.782051 275.241026 
Q 263.192308 136.061538 193.602564 275.241026 
" style="fill:none;opacity:0.2;stroke:#000000;stroke-linejoin:miter;"/>
   </g>
   <g id="patch_98">
    <path clip-path="url(#p783949af79)" d="M 332.782051 275.241026 
Q 266.671795 143.020513 200.561538 275.241026 
" style="fill:none;opacity:0.2;stroke:#000000;stroke-linejoin:miter;"/>
   </g>
   <g id="patch_99">
    <path clip-path="url(#p783949af79)" d="M 332.782051 275.241026 
Q 270.151282 149.979487 207.520513 275.241026 
" style="fill:none;opacity:0.2;stroke:#000000;stroke-linejoin:miter;"/>
   </g>
   <g id="patch_100">
    <path clip-path="url(#p783949af79)" d="M 332.782051 275.241026 
Q 273.630769 156.938462 214.479487 275.241026 
" style="fill:none;opacity:0.2;stroke:#000000;stroke-linejoin:miter;"/>
   </g>
   <g id="patch_101">
    <path clip-path="url(#p783949af79)" d="M 332.782051 275.241026 
Q 277.110256 163.897436 221.438462 275.241026 
" style="fill:none;opacity:0.2;stroke:#000000;stroke-linejoin:miter;"/>
   </g>
   <g id="patch_102">
    <path clip-path="url(#p783949af79)" d="M 332.782051 275.241026 
Q 280.589744 170.85641 228.397436 275.241026 
" style="fill:none;opacity:0.2;stroke:#000000;stroke-linejoin:miter;"/>
   </g>
   <g id="patch_103">
    <path clip-path="url(#p783949af79)" d="M 277.110256 275.241026 
Q 294.507692 240.446154 311.905128 275.241026 
" style="fill:none;opacity:0.2;stroke:#000000;stroke-linejoin:miter;"/>
   </g>
   <g id="patch_104">
    <path clip-path="url(#p783949af79)" d="M 277.110256 275.241026 
Q 284.069231 261.323077 291.028205 275.241026 
" style="fill:none;opacity:0.2;stroke:#000000;stroke-linejoin:miter;"/>
   </g>
   <g id="patch_105">
    <path clip-path="url(#p783949af79)" d="M 277.110256 275.241026 
Q 280.589744 268.282051 284.069231 275.241026 
" style="fill:none;opacity:0.2;stroke:#000000;stroke-linejoin:miter;"/>
   </g>
   <g id="patch_106">
    <path clip-path="url(#p783949af79)" d="M 277.110256 275.241026 
Q 291.028205 247.405128 304.946154 275.241026 
" style="fill:none;opacity:0.2;stroke:#000000;stroke-linejoin:miter;"/>
   </g>
   <g id="patch_107">
    <path clip-path="url(#p783949af79)" d="M 277.110256 275.241026 
Q 287.548718 254.364103 297.987179 275.241026 
" style="fill:none;opacity:0.2;stroke:#000000;stroke-linejoin:miter;"/>
   </g>
   <g id="patch_108">
    <path clip-path="url(#p783949af79)" d="M 284.069231 275.241026 
Q 297.987179 247.405128 311.905128 275.241026 
" style="fill:none;opacity:0.2;stroke:#000000;stroke-linejoin:miter;"/>
   </g>
   <g id="patch_109">
    <path clip-path="url(#p783949af79)" d="M 284.069231 275.241026 
Q 287.548718 268.282051 291.028205 275.241026 
" style="fill:none;opacity:0.2;stroke:#000000;stroke-linejoin:miter;"/>
   </g>
   <g id="patch_110">
    <path clip-path="url(#p783949af79)" d="M 284.069231 275.241026 
Q 291.028205 261.323077 297.987179 275.241026 
" style="fill:none;opacity:0.2;stroke:#000000;stroke-linejoin:miter;"/>
   </g>
   <g id="patch_111">
    <path clip-path="url(#p783949af79)" d="M 284.069231 275.241026 
Q 294.507692 254.364103 304.946154 275.241026 
" style="fill:none;opacity:0.2;stroke:#000000;stroke-linejoin:miter;"/>
   </g>
   <g id="patch_112">
    <path clip-path="url(#p783949af79)" d="M 291.028205 275.241026 
Q 301.466667 254.364103 311.905128 275.241026 
" style="fill:none;opacity:0.2;stroke:#000000;stroke-linejoin:miter;"/>
   </g>
   <g id="patch_113">
    <path clip-path="url(#p783949af79)" d="M 291.028205 275.241026 
Q 297.987179 261.323077 304.946154 275.241026 
" style="fill:none;opacity:0.2;stroke:#000000;stroke-linejoin:miter;"/>
   </g>
   <g id="patch_114">
    <path clip-path="url(#p783949af79)" d="M 291.028205 275.241026 
Q 294.507692 268.282051 297.987179 275.241026 
" style="fill:none;opacity:0.2;stroke:#000000;stroke-linejoin:miter;"/>
   </g>
   <g id="patch_115">
    <path clip-path="url(#p783949af79)" d="M 297.987179 275.241026 
Q 304.946154 261.323077 311.905128 275.241026 
" style="fill:none;opacity:0.2;stroke:#000000;stroke-linejoin:miter;"/>
   </g>
   <g id="patch_116">
    <path clip-path="url(#p783949af79)" d="M 297.987179 275.241026 
Q 301.466667 268.282051 304.946154 275.241026 
" style="fill:none;opacity:0.2;stroke:#000000;stroke-linejoin:miter;"/>
   </g>
   <g id="patch_117">
    <path clip-path="url(#p783949af79)" d="M 304.946154 275.241026 
Q 308.425641 268.282051 311.905128 275.241026 
" style="fill:none;opacity:0.2;stroke:#000000;stroke-linejoin:miter;"/>
   </g>
   <g id="patch_118">
    <path clip-path="url(#p783949af79)" d="M 82.258974 278.720513 
C 83.181745 278.720513 84.066846 278.353892 84.719343 277.701395 
C 85.371841 277.048897 85.738462 276.163796 85.738462 275.241026 
C 85.738462 274.318255 85.371841 273.433154 84.719343 272.780657 
C 84.066846 272.128159 83.181745 271.761538 82.258974 271.761538 
C 81.336204 271.761538 80.451103 272.128159 79.798605 272.780657 
C 79.146108 273.433154 78.779487 274.318255 78.779487 275.241026 
C 78.779487 276.163796 79.146108 277.048897 79.798605 277.701395 
C 80.451103 278.353892 81.336204 278.720513 82.258974 278.720513 
z
" style="fill:#0000ff;"/>
   </g>
   <g id="patch_119">
    <path clip-path="url(#p783949af79)" d="M 89.217949 278.720513 
C 90.14072 278.720513 91.02582 278.353892 91.678318 277.701395 
C 92.330815 277.048897 92.697436 276.163796 92.697436 275.241026 
C 92.697436 274.318255 92.330815 273.433154 91.678318 272.780657 
C 91.02582 272.128159 90.14072 271.761538 89.217949 271.761538 
C 88.295178 271.761538 87.410077 272.128159 86.75758 272.780657 
C 86.105082 273.433154 85.738462 274.318255 85.738462 275.241026 
C 85.738462 276.163796 86.105082 277.048897 86.75758 277.701395 
C 87.410077 278.353892 88.295178 278.720513 89.217949 278.720513 
z
" style="fill:#0000ff;"/>
   </g>
   <g id="patch_120">
    <path clip-path="url(#p783949af79)" d="M 96.176923 278.720513 
C 97.099694 278.720513 97.984795 278.353892 98.637292 277.701395 
C 99.28979 277.048897 99.65641 276.163796 99.65641 275.241026 
C 99.65641 274.318255 99.28979 273.433154 98.637292 272.780657 
C 97.984795 272.128159 97.099694 271.761538 96.176923 271.761538 
C 95.254152 271.761538 94.369052 272.128159 93.716554 272.780657 
C 93.064057 273.433154 92.697436 274.318255 92.697436 275.241026 
C 92.697436 276.163796 93.064057 277.048897 93.716554 277.701395 
C 94.369052 278.353892 95.254152 278.720513 96.176923 278.720513 
z
" style="fill:#0000ff;"/>
   </g>
   <g id="patch_121">
    <path clip-path="url(#p783949af79)" d="M 103.135897 278.720513 
C 104.058668 278.720513 104.943769 278.353892 105.596266 277.701395 
C 106.248764 277.048897 106.615385 276.163796 106.615385 275.241026 
C 106.615385 274.318255 106.248764 273.433154 105.596266 272.780657 
C 104.943769 272.128159 104.058668 271.761538 103.135897 271.761538 
C 102.213127 271.761538 101.328026 272.128159 100.675528 272.780657 
C 100.023031 273.433154 99.65641 274.318255 99.65641 275.241026 
C 99.65641 276.163796 100.023031 277.048897 100.675528 277.701395 
C 101.328026 278.353892 102.213127 278.720513 103.135897 278.720513 
z
" style="fill:#0000ff;"/>
   </g>
   <g id="patch_122">
    <path clip-path="url(#p783949af79)" d="M 110.094872 278.720513 
C 111.017643 278.720513 111.902743 278.353892 112.555241 277.701395 
C 113.207738 277.048897 113.574359 276.163796 113.574359 275.241026 
C 113.574359 274.318255 113.207738 273.433154 112.555241 272.780657 
C 111.902743 272.128159 111.017643 271.761538 110.094872 271.761538 
C 109.172101 271.761538 108.287 272.128159 107.634503 272.780657 
C 106.982005 273.433154 106.615385 274.318255 106.615385 275.241026 
C 106.615385 276.163796 106.982005 277.048897 107.634503 277.701395 
C 108.287 278.353892 109.172101 278.720513 110.094872 278.720513 
z
" style="fill:#0000ff;"/>
   </g>
   <g id="patch_123">
    <path clip-path="url(#p783949af79)" d="M 117.053846 278.720513 
C 117.976617 278.720513 118.861718 278.353892 119.514215 277.701395 
C 120.166713 277.048897 120.533333 276.163796 120.533333 275.241026 
C 120.533333 274.318255 120.166713 273.433154 119.514215 272.780657 
C 118.861718 272.128159 117.976617 271.761538 117.053846 271.761538 
C 116.131075 271.761538 115.245975 272.128159 114.593477 272.780657 
C 113.94098 273.433154 113.574359 274.318255 113.574359 275.241026 
C 113.574359 276.163796 113.94098 277.048897 114.593477 277.701395 
C 115.245975 278.353892 116.131075 278.720513 117.053846 278.720513 
z
" style="fill:#0000ff;"/>
   </g>
   <g id="patch_124">
    <path clip-path="url(#p783949af79)" d="M 124.012821 278.720513 
C 124.935591 278.720513 125.820692 278.353892 126.473189 277.701395 
C 127.125687 277.048897 127.492308 276.163796 127.492308 275.241026 
C 127.492308 274.318255 127.125687 273.433154 126.473189 272.780657 
C 125.820692 272.128159 124.935591 271.761538 124.012821 271.761538 
C 123.09005 271.761538 122.204949 272.128159 121.552452 272.780657 
C 120.899954 273.433154 120.533333 274.318255 120.533333 275.241026 
C 120.533333 276.163796 120.899954 277.048897 121.552452 277.701395 
C 122.204949 278.353892 123.09005 278.720513 124.012821 278.720513 
z
" style="fill:#0000ff;"/>
   </g>
   <g id="patch_125">
    <path clip-path="url(#p783949af79)" d="M 130.971795 278.720513 
C 131.894566 278.720513 132.779666 278.353892 133.432164 277.701395 
C 134.084661 277.048897 134.451282 276.163796 134.451282 275.241026 
C 134.451282 274.318255 134.084661 273.433154 133.432164 272.780657 
C 132.779666 272.128159 131.894566 271.761538 130.971795 271.761538 
C 130.049024 271.761538 129.163923 272.128159 128.511426 272.780657 
C 127.858928 273.433154 127.492308 274.318255 127.492308 275.241026 
C 127.492308 276.163796 127.858928 277.048897 128.511426 277.701395 
C 129.163923 278.353892 130.049024 278.720513 130.971795 278.720513 
z
" style="fill:#0000ff;"/>
   </g>
   <g id="patch_126">
    <path clip-path="url(#p783949af79)" d="M 137.930769 278.720513 
C 138.85354 278.720513 139.738641 278.353892 140.391138 277.701395 
C 141.043636 277.048897 141.410256 276.163796 141.410256 275.241026 
C 141.410256 274.318255 141.043636 273.433154 140.391138 272.780657 
C 139.738641 272.128159 138.85354 271.761538 137.930769 271.761538 
C 137.007998 271.761538 136.122898 272.128159 135.4704 272.780657 
C 134.817903 273.433154 134.451282 274.318255 134.451282 275.241026 
C 134.451282 276.163796 134.817903 277.048897 135.4704 277.701395 
C 136.122898 278.353892 137.007998 278.720513 137.930769 278.720513 
z
" style="fill:#0000ff;"/>
   </g>
   <g id="patch_127">
    <path clip-path="url(#p783949af79)" d="M 144.889744 278.720513 
C 145.812514 278.720513 146.697615 278.353892 147.350113 277.701395 
C 148.00261 277.048897 148.369231 276.163796 148.369231 275.241026 
C 148.369231 274.318255 148.00261 273.433154 147.350113 272.780657 
C 146.697615 272.128159 145.812514 271.761538 144.889744 271.761538 
C 143.966973 271.761538 143.081872 272.128159 142.429375 272.780657 
C 141.776877 273.433154 141.410256 274.318255 141.410256 275.241026 
C 141.410256 276.163796 141.776877 277.048897 142.429375 277.701395 
C 143.081872 278.353892 143.966973 278.720513 144.889744 278.720513 
z
" style="fill:#0000ff;"/>
   </g>
   <g id="patch_128">
    <path clip-path="url(#p783949af79)" d="M 151.848718 278.720513 
C 152.771489 278.720513 153.656589 278.353892 154.309087 277.701395 
C 154.961584 277.048897 155.328205 276.163796 155.328205 275.241026 
C 155.328205 274.318255 154.961584 273.433154 154.309087 272.780657 
C 153.656589 272.128159 152.771489 271.761538 151.848718 271.761538 
C 150.925947 271.761538 150.040846 272.128159 149.388349 272.780657 
C 148.735851 273.433154 148.369231 274.318255 148.369231 275.241026 
C 148.369231 276.163796 148.735851 277.048897 149.388349 277.701395 
C 150.040846 278.353892 150.925947 278.720513 151.848718 278.720513 
z
" style="fill:#0000ff;"/>
   </g>
   <g id="patch_129">
    <path clip-path="url(#p783949af79)" d="M 158.807692 278.720513 
C 159.730463 278.720513 160.615564 278.353892 161.268061 277.701395 
C 161.920559 277.048897 162.287179 276.163796 162.287179 275.241026 
C 162.287179 274.318255 161.920559 273.433154 161.268061 272.780657 
C 160.615564 272.128159 159.730463 271.761538 158.807692 271.761538 
C 157.884922 271.761538 156.999821 272.128159 156.347323 272.780657 
C 155.694826 273.433154 155.328205 274.318255 155.328205 275.241026 
C 155.328205 276.163796 155.694826 277.048897 156.347323 277.701395 
C 156.999821 278.353892 157.884922 278.720513 158.807692 278.720513 
z
" style="fill:#0000ff;"/>
   </g>
   <g id="patch_130">
    <path clip-path="url(#p783949af79)" d="M 165.766667 278.720513 
C 166.689437 278.720513 167.574538 278.353892 168.227036 277.701395 
C 168.879533 277.048897 169.246154 276.163796 169.246154 275.241026 
C 169.246154 274.318255 168.879533 273.433154 168.227036 272.780657 
C 167.574538 272.128159 166.689437 271.761538 165.766667 271.761538 
C 164.843896 271.761538 163.958795 272.128159 163.306298 272.780657 
C 162.6538 273.433154 162.287179 274.318255 162.287179 275.241026 
C 162.287179 276.163796 162.6538 277.048897 163.306298 277.701395 
C 163.958795 278.353892 164.843896 278.720513 165.766667 278.720513 
z
" style="fill:#0000ff;"/>
   </g>
   <g id="patch_131">
    <path clip-path="url(#p783949af79)" d="M 172.725641 278.720513 
C 173.648412 278.720513 174.533513 278.353892 175.18601 277.701395 
C 175.838507 277.048897 176.205128 276.163796 176.205128 275.241026 
C 176.205128 274.318255 175.838507 273.433154 175.18601 272.780657 
C 174.533513 272.128159 173.648412 271.761538 172.725641 271.761538 
C 171.80287 271.761538 170.91777 272.128159 170.265272 272.780657 
C 169.612775 273.433154 169.246154 274.318255 169.246154 275.241026 
C 169.246154 276.163796 169.612775 277.048897 170.265272 277.701395 
C 170.91777 278.353892 171.80287 278.720513 172.725641 278.720513 
z
" style="fill:#0000ff;"/>
   </g>
   <g id="patch_132">
    <path clip-path="url(#p783949af79)" d="M 179.684615 278.720513 
C 180.607386 278.720513 181.492487 278.353892 182.144984 277.701395 
C 182.797482 277.048897 183.164103 276.163796 183.164103 275.241026 
C 183.164103 274.318255 182.797482 273.433154 182.144984 272.780657 
C 181.492487 272.128159 180.607386 271.761538 179.684615 271.761538 
C 178.761845 271.761538 177.876744 272.128159 177.224246 272.780657 
C 176.571749 273.433154 176.205128 274.318255 176.205128 275.241026 
C 176.205128 276.163796 176.571749 277.048897 177.224246 277.701395 
C 177.876744 278.353892 178.761845 278.720513 179.684615 278.720513 
z
" style="fill:#0000ff;"/>
   </g>
   <g id="patch_133">
    <path clip-path="url(#p783949af79)" d="M 186.64359 278.720513 
C 187.566361 278.720513 188.451461 278.353892 189.103959 277.701395 
C 189.756456 277.048897 190.123077 276.163796 190.123077 275.241026 
C 190.123077 274.318255 189.756456 273.433154 189.103959 272.780657 
C 188.451461 272.128159 187.566361 271.761538 186.64359 271.761538 
C 185.720819 271.761538 184.835718 272.128159 184.183221 272.780657 
C 183.530723 273.433154 183.164103 274.318255 183.164103 275.241026 
C 183.164103 276.163796 183.530723 277.048897 184.183221 277.701395 
C 184.835718 278.353892 185.720819 278.720513 186.64359 278.720513 
z
" style="fill:#0000ff;"/>
   </g>
   <g id="patch_134">
    <path clip-path="url(#p783949af79)" d="M 193.602564 278.720513 
C 194.525335 278.720513 195.410436 278.353892 196.062933 277.701395 
C 196.715431 277.048897 197.082051 276.163796 197.082051 275.241026 
C 197.082051 274.318255 196.715431 273.433154 196.062933 272.780657 
C 195.410436 272.128159 194.525335 271.761538 193.602564 271.761538 
C 192.679793 271.761538 191.794693 272.128159 191.142195 272.780657 
C 190.489698 273.433154 190.123077 274.318255 190.123077 275.241026 
C 190.123077 276.163796 190.489698 277.048897 191.142195 277.701395 
C 191.794693 278.353892 192.679793 278.720513 193.602564 278.720513 
z
" style="fill:#0000ff;"/>
   </g>
   <g id="patch_135">
    <path clip-path="url(#p783949af79)" d="M 200.561538 278.720513 
C 201.484309 278.720513 202.36941 278.353892 203.021907 277.701395 
C 203.674405 277.048897 204.041026 276.163796 204.041026 275.241026 
C 204.041026 274.318255 203.674405 273.433154 203.021907 272.780657 
C 202.36941 272.128159 201.484309 271.761538 200.561538 271.761538 
C 199.638768 271.761538 198.753667 272.128159 198.101169 272.780657 
C 197.448672 273.433154 197.082051 274.318255 197.082051 275.241026 
C 197.082051 276.163796 197.448672 277.048897 198.101169 277.701395 
C 198.753667 278.353892 199.638768 278.720513 200.561538 278.720513 
z
" style="fill:#0000ff;"/>
   </g>
   <g id="patch_136">
    <path clip-path="url(#p783949af79)" d="M 207.520513 278.720513 
C 208.443284 278.720513 209.328384 278.353892 209.980882 277.701395 
C 210.633379 277.048897 211 276.163796 211 275.241026 
C 211 274.318255 210.633379 273.433154 209.980882 272.780657 
C 209.328384 272.128159 208.443284 271.761538 207.520513 271.761538 
C 206.597742 271.761538 205.712641 272.128159 205.060144 272.780657 
C 204.407646 273.433154 204.041026 274.318255 204.041026 275.241026 
C 204.041026 276.163796 204.407646 277.048897 205.060144 277.701395 
C 205.712641 278.353892 206.597742 278.720513 207.520513 278.720513 
z
" style="fill:#0000ff;"/>
   </g>
   <g id="patch_137">
    <path clip-path="url(#p783949af79)" d="M 214.479487 278.720513 
C 215.402258 278.720513 216.287359 278.353892 216.939856 277.701395 
C 217.592354 277.048897 217.958974 276.163796 217.958974 275.241026 
C 217.958974 274.318255 217.592354 273.433154 216.939856 272.780657 
C 216.287359 272.128159 215.402258 271.761538 214.479487 271.761538 
C 213.556716 271.761538 212.671616 272.128159 212.019118 272.780657 
C 211.366621 273.433154 211 274.318255 211 275.241026 
C 211 276.163796 211.366621 277.048897 212.019118 277.701395 
C 212.671616 278.353892 213.556716 278.720513 214.479487 278.720513 
z
" style="fill:#0000ff;"/>
   </g>
   <g id="patch_138">
    <path clip-path="url(#p783949af79)" d="M 221.438462 278.720513 
C 222.361232 278.720513 223.246333 278.353892 223.898831 277.701395 
C 224.551328 277.048897 224.917949 276.163796 224.917949 275.241026 
C 224.917949 274.318255 224.551328 273.433154 223.898831 272.780657 
C 223.246333 272.128159 222.361232 271.761538 221.438462 271.761538 
C 220.515691 271.761538 219.63059 272.128159 218.978093 272.780657 
C 218.325595 273.433154 217.958974 274.318255 217.958974 275.241026 
C 217.958974 276.163796 218.325595 277.048897 218.978093 277.701395 
C 219.63059 278.353892 220.515691 278.720513 221.438462 278.720513 
z
" style="fill:#0000ff;"/>
   </g>
   <g id="patch_139">
    <path clip-path="url(#p783949af79)" d="M 228.397436 278.720513 
C 229.320207 278.720513 230.205307 278.353892 230.857805 277.701395 
C 231.510302 277.048897 231.876923 276.163796 231.876923 275.241026 
C 231.876923 274.318255 231.510302 273.433154 230.857805 272.780657 
C 230.205307 272.128159 229.320207 271.761538 228.397436 271.761538 
C 227.474665 271.761538 226.589564 272.128159 225.937067 272.780657 
C 225.284569 273.433154 224.917949 274.318255 224.917949 275.241026 
C 224.917949 276.163796 225.284569 277.048897 225.937067 277.701395 
C 226.589564 278.353892 227.474665 278.720513 228.397436 278.720513 
z
" style="fill:#0000ff;"/>
   </g>
   <g id="patch_140">
    <path clip-path="url(#p783949af79)" d="M 235.35641 278.720513 
C 236.279181 278.720513 237.164282 278.353892 237.816779 277.701395 
C 238.469277 277.048897 238.835897 276.163796 238.835897 275.241026 
C 238.835897 274.318255 238.469277 273.433154 237.816779 272.780657 
C 237.164282 272.128159 236.279181 271.761538 235.35641 271.761538 
C 234.433639 271.761538 233.548539 272.128159 232.896041 272.780657 
C 232.243544 273.433154 231.876923 274.318255 231.876923 275.241026 
C 231.876923 276.163796 232.243544 277.048897 232.896041 277.701395 
C 233.548539 278.353892 234.433639 278.720513 235.35641 278.720513 
z
" style="fill:#0000ff;"/>
   </g>
   <g id="patch_141">
    <path clip-path="url(#p783949af79)" d="M 242.315385 278.720513 
C 243.238155 278.720513 244.123256 278.353892 244.775754 277.701395 
C 245.428251 277.048897 245.794872 276.163796 245.794872 275.241026 
C 245.794872 274.318255 245.428251 273.433154 244.775754 272.780657 
C 244.123256 272.128159 243.238155 271.761538 242.315385 271.761538 
C 241.392614 271.761538 240.507513 272.128159 239.855016 272.780657 
C 239.202518 273.433154 238.835897 274.318255 238.835897 275.241026 
C 238.835897 276.163796 239.202518 277.048897 239.855016 277.701395 
C 240.507513 278.353892 241.392614 278.720513 242.315385 278.720513 
z
" style="fill:#0000ff;"/>
   </g>
   <g id="patch_142">
    <path clip-path="url(#p783949af79)" d="M 249.274359 278.720513 
C 250.19713 278.720513 251.08223 278.353892 251.734728 277.701395 
C 252.387225 277.048897 252.753846 276.163796 252.753846 275.241026 
C 252.753846 274.318255 252.387225 273.433154 251.734728 272.780657 
C 251.08223 272.128159 250.19713 271.761538 249.274359 271.761538 
C 248.351588 271.761538 247.466487 272.128159 246.81399 272.780657 
C 246.161493 273.433154 245.794872 274.318255 245.794872 275.241026 
C 245.794872 276.163796 246.161493 277.048897 246.81399 277.701395 
C 247.466487 278.353892 248.351588 278.720513 249.274359 278.720513 
z
" style="fill:#0000ff;"/>
   </g>
   <g id="patch_143">
    <path clip-path="url(#p783949af79)" d="M 256.233333 278.720513 
C 257.156104 278.720513 258.041205 278.353892 258.693702 277.701395 
C 259.3462 277.048897 259.712821 276.163796 259.712821 275.241026 
C 259.712821 274.318255 259.3462 273.433154 258.693702 272.780657 
C 258.041205 272.128159 257.156104 271.761538 256.233333 271.761538 
C 255.310563 271.761538 254.425462 272.128159 253.772964 272.780657 
C 253.120467 273.433154 252.753846 274.318255 252.753846 275.241026 
C 252.753846 276.163796 253.120467 277.048897 253.772964 277.701395 
C 254.425462 278.353892 255.310563 278.720513 256.233333 278.720513 
z
" style="fill:#0000ff;"/>
   </g>
   <g id="patch_144">
    <path clip-path="url(#p783949af79)" d="M 263.192308 278.720513 
C 264.115078 278.720513 265.000179 278.353892 265.652677 277.701395 
C 266.305174 277.048897 266.671795 276.163796 266.671795 275.241026 
C 266.671795 274.318255 266.305174 273.433154 265.652677 272.780657 
C 265.000179 272.128159 264.115078 271.761538 263.192308 271.761538 
C 262.269537 271.761538 261.384436 272.128159 260.731939 272.780657 
C 260.079441 273.433154 259.712821 274.318255 259.712821 275.241026 
C 259.712821 276.163796 260.079441 277.048897 260.731939 277.701395 
C 261.384436 278.353892 262.269537 278.720513 263.192308 278.720513 
z
" style="fill:#0000ff;"/>
   </g>
   <g id="patch_145">
    <path clip-path="url(#p783949af79)" d="M 270.151282 278.720513 
C 271.074053 278.720513 271.959154 278.353892 272.611651 277.701395 
C 273.264149 277.048897 273.630769 276.163796 273.630769 275.241026 
C 273.630769 274.318255 273.264149 273.433154 272.611651 272.780657 
C 271.959154 272.128159 271.074053 271.761538 270.151282 271.761538 
C 269.228511 271.761538 268.343411 272.128159 267.690913 272.780657 
C 267.038416 273.433154 266.671795 274.318255 266.671795 275.241026 
C 266.671795 276.163796 267.038416 277.048897 267.690913 277.701395 
C 268.343411 278.353892 269.228511 278.720513 270.151282 278.720513 
z
" style="fill:#0000ff;"/>
   </g>
   <g id="patch_146">
    <path clip-path="url(#p783949af79)" d="M 277.110256 278.720513 
C 278.033027 278.720513 278.918128 278.353892 279.570625 277.701395 
C 280.223123 277.048897 280.589744 276.163796 280.589744 275.241026 
C 280.589744 274.318255 280.223123 273.433154 279.570625 272.780657 
C 278.918128 272.128159 278.033027 271.761538 277.110256 271.761538 
C 276.187486 271.761538 275.302385 272.128159 274.649887 272.780657 
C 273.99739 273.433154 273.630769 274.318255 273.630769 275.241026 
C 273.630769 276.163796 273.99739 277.048897 274.649887 277.701395 
C 275.302385 278.353892 276.187486 278.720513 277.110256 278.720513 
z
" style="fill:#0000ff;"/>
   </g>
   <g id="patch_147">
    <path clip-path="url(#p783949af79)" d="M 284.069231 278.720513 
C 284.992002 278.720513 285.877102 278.353892 286.5296 277.701395 
C 287.182097 277.048897 287.548718 276.163796 287.548718 275.241026 
C 287.548718 274.318255 287.182097 273.433154 286.5296 272.780657 
C 285.877102 272.128159 284.992002 271.761538 284.069231 271.761538 
C 283.14646 271.761538 282.261359 272.128159 281.608862 272.780657 
C 280.956364 273.433154 280.589744 274.318255 280.589744 275.241026 
C 280.589744 276.163796 280.956364 277.048897 281.608862 277.701395 
C 282.261359 278.353892 283.14646 278.720513 284.069231 278.720513 
z
" style="fill:#0000ff;"/>
   </g>
   <g id="patch_148">
    <path clip-path="url(#p783949af79)" d="M 291.028205 278.720513 
C 291.950976 278.720513 292.836077 278.353892 293.488574 277.701395 
C 294.141072 277.048897 294.507692 276.163796 294.507692 275.241026 
C 294.507692 274.318255 294.141072 273.433154 293.488574 272.780657 
C 292.836077 272.128159 291.950976 271.761538 291.028205 271.761538 
C 290.105434 271.761538 289.220334 272.128159 288.567836 272.780657 
C 287.915339 273.433154 287.548718 274.318255 287.548718 275.241026 
C 287.548718 276.163796 287.915339 277.048897 288.567836 277.701395 
C 289.220334 278.353892 290.105434 278.720513 291.028205 278.720513 
z
" style="fill:#0000ff;"/>
   </g>
   <g id="patch_149">
    <path clip-path="url(#p783949af79)" d="M 297.987179 278.720513 
C 298.90995 278.720513 299.795051 278.353892 300.447548 277.701395 
C 301.100046 277.048897 301.466667 276.163796 301.466667 275.241026 
C 301.466667 274.318255 301.100046 273.433154 300.447548 272.780657 
C 299.795051 272.128159 298.90995 271.761538 297.987179 271.761538 
C 297.064409 271.761538 296.179308 272.128159 295.526811 272.780657 
C 294.874313 273.433154 294.507692 274.318255 294.507692 275.241026 
C 294.507692 276.163796 294.874313 277.048897 295.526811 277.701395 
C 296.179308 278.353892 297.064409 278.720513 297.987179 278.720513 
z
" style="fill:#0000ff;"/>
   </g>
   <g id="patch_150">
    <path clip-path="url(#p783949af79)" d="M 304.946154 278.720513 
C 305.868925 278.720513 306.754025 278.353892 307.406523 277.701395 
C 308.05902 277.048897 308.425641 276.163796 308.425641 275.241026 
C 308.425641 274.318255 308.05902 273.433154 307.406523 272.780657 
C 306.754025 272.128159 305.868925 271.761538 304.946154 271.761538 
C 304.023383 271.761538 303.138282 272.128159 302.485785 272.780657 
C 301.833287 273.433154 301.466667 274.318255 301.466667 275.241026 
C 301.466667 276.163796 301.833287 277.048897 302.485785 277.701395 
C 303.138282 278.353892 304.023383 278.720513 304.946154 278.720513 
z
" style="fill:#0000ff;"/>
   </g>
   <g id="patch_151">
    <path clip-path="url(#p783949af79)" d="M 311.905128 278.720513 
C 312.827899 278.720513 313.713 278.353892 314.365497 277.701395 
C 315.017995 277.048897 315.384615 276.163796 315.384615 275.241026 
C 315.384615 274.318255 315.017995 273.433154 314.365497 272.780657 
C 313.713 272.128159 312.827899 271.761538 311.905128 271.761538 
C 310.982357 271.761538 310.097257 272.128159 309.444759 272.780657 
C 308.792262 273.433154 308.425641 274.318255 308.425641 275.241026 
C 308.425641 276.163796 308.792262 277.048897 309.444759 277.701395 
C 310.097257 278.353892 310.982357 278.720513 311.905128 278.720513 
z
" style="fill:#0000ff;"/>
   </g>
   <g id="patch_152">
    <path clip-path="url(#p783949af79)" d="M 318.864103 278.720513 
C 319.786873 278.720513 320.671974 278.353892 321.324472 277.701395 
C 321.976969 277.048897 322.34359 276.163796 322.34359 275.241026 
C 322.34359 274.318255 321.976969 273.433154 321.324472 272.780657 
C 320.671974 272.128159 319.786873 271.761538 318.864103 271.761538 
C 317.941332 271.761538 317.056231 272.128159 316.403734 272.780657 
C 315.751236 273.433154 315.384615 274.318255 315.384615 275.241026 
C 315.384615 276.163796 315.751236 277.048897 316.403734 277.701395 
C 317.056231 278.353892 317.941332 278.720513 318.864103 278.720513 
z
" style="fill:#0000ff;"/>
   </g>
   <g id="patch_153">
    <path clip-path="url(#p783949af79)" d="M 325.823077 278.720513 
C 326.745848 278.720513 327.630948 278.353892 328.283446 277.701395 
C 328.935943 277.048897 329.302564 276.163796 329.302564 275.241026 
C 329.302564 274.318255 328.935943 273.433154 328.283446 272.780657 
C 327.630948 272.128159 326.745848 271.761538 325.823077 271.761538 
C 324.900306 271.761538 324.015205 272.128159 323.362708 272.780657 
C 322.71021 273.433154 322.34359 274.318255 322.34359 275.241026 
C 322.34359 276.163796 322.71021 277.048897 323.362708 277.701395 
C 324.015205 278.353892 324.900306 278.720513 325.823077 278.720513 
z
" style="fill:#0000ff;"/>
   </g>
   <g id="patch_154">
    <path clip-path="url(#p783949af79)" d="M 332.782051 278.720513 
C 333.704822 278.720513 334.589923 278.353892 335.24242 277.701395 
C 335.894918 277.048897 336.261538 276.163796 336.261538 275.241026 
C 336.261538 274.318255 335.894918 273.433154 335.24242 272.780657 
C 334.589923 272.128159 333.704822 271.761538 332.782051 271.761538 
C 331.85928 271.761538 330.97418 272.128159 330.321682 272.780657 
C 329.669185 273.433154 329.302564 274.318255 329.302564 275.241026 
C 329.302564 276.163796 329.669185 277.048897 330.321682 277.701395 
C 330.97418 278.353892 331.85928 278.720513 332.782051 278.720513 
z
" style="fill:#0000ff;"/>
   </g>
  </g>
 </g>
 <defs>
  <clipPath id="p783949af79">
   <rect height="271.4" width="271.4" x="75.3" y="10.8"/>
  </clipPath>
 </defs>
</svg>
